<?xml version="1.0" encoding="UTF-8" standalone="no"?>
<!-- Created with Inkscape (http://www.inkscape.org/) -->

<svg
   width="42.333652mm"
   height="42.333347mm"
   viewBox="0 0 42.333652 42.333347"
   version="1.1"
   id="svg5"
   inkscape:version="1.2 (dc2aedaf03, 2022-05-15)"
   sodipodi:docname="logo.svg"
   xmlns:inkscape="http://www.inkscape.org/namespaces/inkscape"
   xmlns:sodipodi="http://sodipodi.sourceforge.net/DTD/sodipodi-0.dtd"
   xmlns="http://www.w3.org/2000/svg"
   xmlns:svg="http://www.w3.org/2000/svg">
  <sodipodi:namedview
     id="namedview7"
     pagecolor="#ffffff"
     bordercolor="#666666"
     borderopacity="1.0"
     inkscape:showpageshadow="2"
     inkscape:pageopacity="0.0"
     inkscape:pagecheckerboard="0"
     inkscape:deskcolor="#d1d1d1"
     inkscape:document-units="mm"
     showgrid="false"
     inkscape:zoom="0.2102413"
     inkscape:cx="7.134659"
     inkscape:cy="275.87348"
     inkscape:window-width="2516"
     inkscape:window-height="1330"
     inkscape:window-x="26"
     inkscape:window-y="23"
     inkscape:window-maximized="0"
     inkscape:current-layer="layer1" />
  <defs
     id="defs2" />
  <g
     inkscape:label="Laag 1"
     inkscape:groupmode="layer"
     id="layer1"
     transform="translate(-91.717536,-75.254109)">
    <path
       d="m 92.479037,91.824917 c -1.01522,-1.01523 -1.01445,-2.662 -2.7e-4,-3.67618 l 5.51565,-5.51565 c 1.01507,-1.01507 2.660733,-1.01518 3.676183,2.7e-4 1.01522,1.01522 1.01444,2.662 2.6e-4,3.67618 l -5.515643,5.51564 c -1.01508,1.01508 -2.66074,1.01518 -3.67618,-2.6e-4 z M 104.6119,79.692057 c -1.01522,-1.01522 -1.01545,-2.661 0,-3.67645 1.01522,-1.01522 2.661,-1.01544 3.67644,0 1.01522,1.01522 1.01545,2.661 0,3.67645 -1.01522,1.01522 -2.661,1.01544 -3.67644,0 z m 21.69208,28.310003 c -1.01522,-1.01522 -1.01639,-2.66006 0.002,-3.67808 l 3.30553,-3.30553 c 1.01612,-1.01612 2.66263,-1.01708 3.67808,-0.002 1.01522,1.01522 1.01638,2.66006 -0.002,3.67808 l -3.30553,3.30553 c -1.01613,1.01613 -2.66264,1.01708 -3.67808,0.002 z m -8.8239,8.8239 c -1.01522,-1.01522 -1.01544,-2.661 0,-3.67645 1.01522,-1.01522 2.661,-1.01544 3.67645,0 1.01522,1.01523 1.01544,2.661 0,3.67645 -1.01523,1.01522 -2.661,1.01544 -3.67645,0 z M 92.479037,104.32544 c -1.01522,-1.01522 -1.01545,-2.661 0,-3.67645 1.01522,-1.015223 2.661,-1.015443 3.67644,0 1.01523,1.01522 1.01545,2.661 0,3.67645 -1.01522,1.01522 -2.661,1.01544 -3.67644,0 z m 6.61792,-6.617933 c -1.01522,-1.01522 -1.01439,-2.66204 0.002,-3.67823 l 18.011013,-18.01101 c 1.0162,-1.0162 2.66278,-1.01723 3.67823,-0.002 1.01522,1.01522 1.01439,2.66205 -0.002,3.67823 l -18.011,18.01101 c -1.01621,1.01621 -2.66278,1.01723 -3.678233,0.002 z m -2.02214,14.522673 c -1.01522,-1.01522 -1.01538,-2.66106 -8.2e-4,-3.67562 l 6.619243,-6.61925 c 1.01477,-1.01477 2.66018,-1.01462 3.67562,8.2e-4 1.01523,1.01523 1.01539,2.66107 8.3e-4,3.67563 l -6.61925,6.61924 c -1.014773,1.01477 -2.660183,1.01462 -3.675623,-8.2e-4 z M 110.31066,98.994327 c -1.01522,-1.01522 -1.01566,-2.66077 2e-5,-3.67645 l 14.70575,-14.70576 c 1.01523,-1.01523 2.66101,-1.01546 3.67646,-1e-5 1.01522,1.01522 1.01567,2.66078 -1e-5,3.67645 l -14.70576,14.70576 c -1.01523,1.015233 -2.66101,1.015463 -3.67646,1e-5 z m -5.3311,17.831633 c -1.01522,-1.01522 -1.01395,-2.6625 9e-5,-3.67654 l 24.632,-24.631993 c 1.01527,-1.01528 2.66109,-1.01554 3.67654,-1e-4 1.01522,1.01522 1.01394,2.6625 -10e-5,3.67654 L 108.6561,116.82586 c -1.01528,1.01528 -2.66109,1.01554 -3.67654,10e-5 z"
       id="path3954"
       style="stroke-width:0.264583" />
  </g>
</svg>
