<?xml version="1.0" encoding="UTF-8" standalone="no"?>
<!-- Created with Inkscape (http://www.inkscape.org/) -->

<svg
   width="210mm"
   height="297mm"
   viewBox="0 0 210 297"
   version="1.1"
   id="svg720"
   xml:space="preserve"
   inkscape:version="1.2.1 (9c6d41e410, 2022-07-14)"
   sodipodi:docname="coolguy2.svg"
   xmlns:inkscape="http://www.inkscape.org/namespaces/inkscape"
   xmlns:sodipodi="http://sodipodi.sourceforge.net/DTD/sodipodi-0.dtd"
   xmlns="http://www.w3.org/2000/svg"
   xmlns:svg="http://www.w3.org/2000/svg"><sodipodi:namedview
     id="namedview722"
     pagecolor="#ffffff"
     bordercolor="#666666"
     borderopacity="1.0"
     inkscape:showpageshadow="2"
     inkscape:pageopacity="0.0"
     inkscape:pagecheckerboard="0"
     inkscape:deskcolor="#d1d1d1"
     inkscape:document-units="mm"
     showgrid="false"
     inkscape:zoom="0.2102413"
     inkscape:cx="-508.93901"
     inkscape:cy="561.25984"
     inkscape:window-width="2560"
     inkscape:window-height="1374"
     inkscape:window-x="0"
     inkscape:window-y="29"
     inkscape:window-maximized="1"
     inkscape:current-layer="layer1" /><defs
     id="defs717" /><g
     inkscape:label="Layer 1"
     inkscape:groupmode="layer"
     id="layer1"><g
       id="g914"
       transform="matrix(1.0887823,0,0,1.0887823,-11.456839,-12.996268)"><path
         style="fill:#f8b55e;stroke-width:0.092284"
         d="m 101.59625,278.95544 -0.22372,-0.25378 0.25378,0.22373 c 0.13958,0.12305 0.25378,0.23725 0.25378,0.25378 0,0.0724 -0.0747,0.0135 -0.28384,-0.22373 z m 10.52737,-0.25378 c 0.1192,-0.12689 0.2375,-0.23071 0.26288,-0.23071 0.0254,0 -0.0514,0.10382 -0.1706,0.23071 -0.1192,0.12689 -0.2375,0.23071 -0.26288,0.23071 -0.0254,0 0.0514,-0.10382 0.1706,-0.23071 z m -11.95955,-1.08433 -0.175801,-0.20764 0.207641,0.1758 c 0.19513,0.1652 0.24965,0.23947 0.1758,0.23947 -0.0175,0 -0.11095,-0.0934 -0.20764,-0.20763 z M 57.237386,257.83671 C 45.073282,246.4476 35.969544,237.85654 35.943919,237.74239 c -0.02462,-0.10968 -1.666784,-10.05938 -3.649258,-22.11046 l -3.604497,-21.91106 -0.722296,-1.20609 c -6.314827,-10.54455 -10.28398,-20.62665 -11.537515,-29.30659 -0.328841,-2.27701 -0.409767,-3.43921 -0.408044,-5.86003 0.0019,-2.68882 0.185167,-4.48439 0.673415,-6.59831 l 0.266433,-1.15355 -0.351198,-0.55928 c -0.602017,-0.9587 -1.261908,-2.35948 -1.653274,-3.50948 -1.361988,-4.00208 -1.225113,-8.12903 0.417181,-12.57848 2.196782,-5.95172 9.031254,-14.24104 17.008834,-20.62949 0.681623,-0.54584 1.339782,-1.05827 1.462577,-1.13873 l 0.223263,-0.14629 -0.03217,-15.371781 c -0.03038,-14.51361 -0.02272,-15.43876 0.137154,-16.571476 0.702779,-4.979203 1.981153,-8.533544 4.928921,-13.70418 5.510003,-9.665015 12.997681,-18.193985 21.525692,-24.519214 6.05146,-4.48837 12.830645,-8.02204 19.732222,-10.28548 L 81.867488,30.08847 82.5689,29.211771 c 0.877954,-1.097358 3.321804,-3.546133 4.361184,-4.369973 1.803488,-1.429491 3.589194,-2.554959 5.600066,-3.529526 2.901712,-1.406313 4.828551,-2.066681 7.62671,-2.613836 2.39023,-0.467386 3.8061,-0.59695 6.56814,-0.601039 3.99,-0.0059 6.66701,0.416979 10.24353,1.61817 2.30406,0.773831 6.75332,3.213802 8.62856,4.731896 1.60151,1.296508 3.58316,3.391941 4.75308,5.025997 l 0.51262,0.715994 0.94316,0.305041 c 3.97573,1.285859 8.83202,3.436976 12.61221,5.586657 6.70481,3.812809 12.64444,8.568956 18.04343,14.448232 4.84435,5.2753 9.0954,11.348793 12.2454,17.495077 1.91409,3.73478 2.89829,6.731209 3.43796,10.466986 0.30855,2.135918 0.32637,3.469219 0.24048,17.989963 l -0.0848,14.34475 0.20297,0.14116 c 0.50476,0.35106 3.46009,2.76941 4.58647,3.75312 1.76379,1.54037 5.36119,5.17497 6.8262,6.89677 5.54837,6.52092 8.00081,11.26601 8.58021,16.60144 0.35317,3.25223 -0.29996,6.68541 -1.83431,9.64205 -0.54333,1.04696 -0.55298,1.0784 -0.45863,1.49481 0.4705,2.07661 0.68341,6.20619 0.45868,8.89651 -0.68384,8.18645 -3.68481,17.54694 -9.53285,29.73444 -0.65758,1.37041 -1.52527,3.13535 -1.9282,3.92207 l -0.73259,1.4304 -3.50872,22.42231 -3.50871,22.4223 -0.26869,0.23343 c -0.14779,0.12838 -9.44905,8.80891 -20.66947,19.29007 l -20.40077,19.05666 -1.6354,0.0641 c -2.24611,0.088 -20.51253,0.37694 -20.56416,0.3253 -0.0229,-0.0229 11.22414,-10.55957 24.99343,-23.41484 l 25.03505,-23.37323 3.33583,-21.18926 3.33582,-21.18926 1.73105,-3.40823 c 3.5011,-6.89328 5.77581,-12.14627 7.4768,-17.2662 1.68976,-5.08614 2.45515,-8.93267 2.46923,-12.4094 0.01,-2.39163 -0.2587,-3.90514 -0.96292,-5.43032 -0.73343,-1.58841 -1.68963,-2.6111 -3.08179,-3.29607 -1.05059,-0.5169 -1.69664,-0.68541 -2.88387,-0.75218 l -0.94591,-0.0532 v -1.79362 -1.79362 l 0.25378,0.0526 c 2.33311,0.48392 5.44941,0.58863 6.89826,0.23178 3.21165,-0.79101 3.3873,-3.3327 0.52887,-7.65248 -5.12186,-7.74035 -14.0162,-15.02993 -24.61503,-20.17385 -11.28452,-5.4767 -24.54686,-8.71504 -39.82056,-9.72319 -5.89062,-0.38882 -16.81458,-0.38915 -22.655724,-6.5e-4 -21.428688,1.42511 -39.02187,7.24435 -52.283349,17.29358 -2.181473,1.65308 -4.195612,3.41553 -6.278691,5.49413 -2.519718,2.51431 -4.32859,4.69001 -5.985276,7.19907 -2.423369,3.6702 -2.587395,6.11953 -0.48175,7.19374 1.302719,0.66461 4.055764,0.7795 7.035576,0.29362 0.579836,-0.0945 1.064311,-0.16327 1.076613,-0.15274 0.0123,0.0105 0.04968,0.92963 0.08307,2.04243 l 0.0607,2.02326 -0.821341,0.26508 c -2.686116,0.86693 -4.649419,2.47819 -5.805356,4.7644 -0.767354,1.51767 -1.064642,2.94445 -1.126205,5.40503 -0.05456,2.18067 0.05849,3.40061 0.535702,5.78092 1.329225,6.63007 5.577008,16.27517 11.014669,25.01011 l 0.443763,0.71286 3.477474,21.11231 3.477474,21.11233 25.276401,23.67085 25.276402,23.67086 -0.780685,0.0221 c -1.889916,0.0534 -17.640811,0.30139 -19.099063,0.30067 l -1.614971,-9.2e-4 -21.248705,-19.89492 z M 55.645387,110.17639 c 3.832319,-1.65762 7.013149,-3.05918 7.068511,-3.11459 0.05536,-0.0554 0.19146,-1.0351 0.30244,-2.17712 1.588301,-16.344171 7.051839,-32.927805 15.885726,-48.218408 2.706145,-4.684075 6.474903,-10.221345 9.056614,-13.30648 0.347884,-0.415719 0.632514,-0.774207 0.632514,-0.796641 0,-0.06707 -2.155907,0.56052 -3.7438,1.089835 -13.25196,4.417464 -24.515543,13.755887 -32.392358,26.855891 -1.897863,3.156353 -3.081742,5.719167 -3.580935,7.751859 -0.443754,1.806949 -0.463889,2.175486 -0.446201,8.167138 0.03702,12.539533 0.139578,26.762366 0.192983,26.762366 0.03116,0 3.192188,-1.35623 7.024506,-3.01385 z m 108.193323,1.97566 c 0.0298,-0.57101 0.0651,-7.97334 0.0783,-16.449631 0.0261,-16.711272 0.0526,-15.752486 -0.49204,-17.836059 -0.3312,-1.267124 -0.64406,-2.068109 -1.38601,-3.548431 -3.83917,-7.659793 -9.77196,-15.10701 -16.44103,-20.637835 -4.51091,-3.741005 -10.01674,-6.979088 -15.47894,-9.103463 -1.39597,-0.542925 -4.21844,-1.480582 -5.512,-1.831154 l -0.85166,-0.230809 0.90321,1.123482 c 6.15611,7.657441 12.30916,18.319814 16.49182,28.577982 4.46882,10.960021 7.23084,22.058822 8.30205,33.360678 0.077,0.8121 0.17078,1.48956 0.20845,1.50547 0.0377,0.0159 3.20384,1.39347 7.03593,3.06124 3.8321,1.66777 6.99449,3.03555 7.02756,3.03952 0.0331,0.004 0.0845,-0.45998 0.11435,-1.03099 z M 67.8572,105.71824 c 4.907196,-1.60137 12.198394,-3.15514 19.257448,-4.10382 16.664552,-2.239577 34.022652,-1.51987 50.064082,2.07576 2.97614,0.6671 7.54139,1.91903 8.57943,2.35275 0.19026,0.0795 0.36216,0.12831 0.38199,0.10849 0.11994,-0.11995 -0.94667,-7.058883 -1.5707,-10.218291 -3.2563,-16.486378 -9.43017,-31.835108 -18.00335,-44.757757 -1.90244,-2.867619 -3.80869,-5.422768 -4.58308,-6.143223 -1.19165,-1.108644 -2.594,-1.866045 -4.23008,-2.28464 -0.7831,-0.200359 -0.80214,-0.200694 -11.39707,-0.200694 -9.980741,0 -10.655786,0.01011 -11.336829,0.169786 -1.615523,0.378771 -3.128087,1.165815 -4.284909,2.229598 -1.713396,1.575594 -6.117739,8.10519 -9.243745,13.70418 -1.176422,2.107089 -3.97213,7.770052 -4.988715,10.105102 -4.835514,11.106947 -8.095928,22.839965 -9.778232,35.188229 -0.328225,2.4092 -0.319521,2.2677 -0.135145,2.19695 0.0799,-0.0307 0.650905,-0.22075 1.268905,-0.42242 z m 51.47419,-66.549406 c 0.26395,-0.263957 0.18985,-0.571915 -0.32604,-1.354987 -2.13843,-3.245936 -5.70699,-5.34146 -9.93724,-5.835319 -1.27536,-0.148893 -4.43699,-0.07214 -5.57305,0.135284 -1.20552,0.220114 -2.45366,0.571172 -3.506791,0.986343 -2.481096,0.978106 -5.036167,2.927174 -6.471304,4.936461 -0.447412,0.626406 -0.493699,0.86742 -0.219288,1.141831 0.182799,0.182798 0.307614,0.184568 13.012053,0.184568 h 12.82747 z m -5.9158,238.344436 c 0,-0.0192 0.0727,-0.0918 0.1615,-0.1615 0.14637,-0.11478 0.14963,-0.11153 0.0349,0.0349 -0.12056,0.15371 -0.19635,0.2026 -0.19635,0.12665 z M 87.3915,235.54716 c -2.867726,-3.96633 -5.308468,-7.34329 -5.423871,-7.50433 l -0.209824,-0.29281 1.686368,-3.40908 1.686368,-3.40908 21.439519,-0.0233 21.43952,-0.0233 1.68442,3.43512 1.68441,3.43512 -0.90195,1.24849 c -0.49608,0.68667 -2.92869,4.05161 -5.40582,7.47766 l -4.50385,6.22917 -4.38309,0.0225 -4.38308,0.0225 -2.49166,-4.61666 c -2.43191,-4.50594 -2.4979,-4.61604 -2.75141,-4.59057 -0.24197,0.0243 -0.42879,0.33847 -2.73186,4.59416 l -2.47212,4.56806 -4.374014,0.0239 -4.374009,0.0239 z M 61.647552,208.98023 48.777226,193.39315 45.334319,167.29579 c -2.70261,-20.48586 -3.473469,-26.12027 -3.585043,-26.20399 -0.117922,-0.0885 -0.07434,-0.12224 0.255812,-0.19811 0.218873,-0.0503 1.166214,-0.30408 2.105204,-0.56395 10.860721,-3.00582 23.982467,-5.62737 35.575492,-7.10751 10.291931,-1.31402 22.160226,-2.05634 29.508866,-1.84565 13.94979,0.39994 27.51164,1.95911 41.7344,4.79812 5.51173,1.10019 13.78511,3.06491 18.4183,4.37387 0.63025,0.17806 1.29764,0.36645 1.48306,0.41863 0.25633,0.0721 0.32687,0.13423 0.29426,0.25897 -0.0236,0.0902 -1.5877,11.88367 -3.47577,26.20762 l -3.43287,26.04355 -13.01109,15.54958 c -10.86689,12.98706 -13.02863,15.52593 -13.11751,15.40602 -0.0585,-0.079 -1.38459,-2.53145 -2.94679,-5.44998 l -2.84037,-5.30639 -7.78511,-4.67075 c -6.19504,-3.71675 -7.76076,-4.69349 -7.66587,-4.78218 0.0656,-0.0613 1.71806,-1.03675 3.67217,-2.16766 4.45209,-2.57659 4.24507,-2.44516 4.24507,-2.69516 0,-0.11273 -1.33214,-7.20308 -2.96031,-15.75634 -3.1498,-16.54691 -3.10687,-16.2785 -2.69506,-16.84939 0.11957,-0.16575 3.71589,-2.5431 9.26989,-6.12784 4.99099,-3.22137 13.24808,-8.55053 18.34908,-11.84259 5.101,-3.29206 9.33241,-6.0417 9.40316,-6.11031 0.13658,-0.13248 0.84036,-2.61948 0.84036,-2.96964 0,-0.4765 -0.16123,-0.44275 -4.25096,0.88976 -2.1539,0.70177 -6.4909,2.11443 -9.63778,3.13922 -5.48663,1.78673 -11.31143,3.68408 -15.73443,5.12526 -2.92883,0.95432 -5.68357,1.84971 -8.99769,2.92459 -1.57344,0.51032 -3.04768,1.02251 -3.27608,1.1382 -1.1716,0.59346 -2.03025,2.09204 -2.03025,3.54337 0,0.27972 1.47424,8.90864 3.27608,19.17537 1.80185,10.26673 3.27608,18.78508 3.27608,18.92966 0,0.14458 -0.0727,0.32568 -0.16149,0.40245 -0.39261,0.33931 -12.71501,7.64656 -12.8533,7.62207 -0.23977,-0.0425 -12.906969,-7.66604 -12.957786,-7.79846 -0.02477,-0.0646 1.429772,-8.51679 3.232326,-18.78271 1.802554,-10.26594 3.30029,-18.9145 3.32831,-19.21904 0.13785,-1.49846 -0.770069,-3.23383 -2.02503,-3.87058 -0.704248,-0.35732 -41.57456,-13.63553 -41.774664,-13.57202 -0.09216,0.0292 -0.186917,0.1272 -0.210577,0.21768 -0.03893,0.14887 0.233099,2.47519 0.341555,2.9209 0.03025,0.1243 2.147468,1.52394 6.484602,4.28679 3.541831,2.25623 9.575041,6.10029 13.407135,8.54236 3.832094,2.44207 9.272237,5.90702 12.089207,7.6999 2.81697,1.79288 5.198856,3.32667 5.293081,3.40843 0.239507,0.20782 0.505849,0.75815 0.570294,1.17837 0.03929,0.25619 -0.766443,4.66677 -2.904503,15.89929 -1.627379,8.54961 -2.958872,15.65842 -2.958872,15.79735 0,0.1716 0.0814,0.3088 0.253781,0.42777 0.13958,0.0963 1.925276,1.14319 3.968213,2.32636 2.042938,1.18315 3.714432,2.17697 3.714432,2.20847 0,0.0315 -3.394898,2.06838 -7.544219,4.52638 -4.14932,2.458 -7.75426,4.60099 -8.010977,4.76217 -0.465566,0.29233 -0.474172,0.30678 -3.368367,5.65648 -1.595885,2.94986 -2.922372,5.3619 -2.947751,5.36007 -0.02538,-0.002 -5.837788,-7.01749 -12.916468,-15.59039 z m -20.00406,-30.03981 c -0.42913,-0.30058 -2.453133,-3.26928 -3.553332,-5.21185 -3.553557,-6.27434 -4.872161,-12.20737 -3.845623,-17.30326 0.321612,-1.59652 1.189359,-3.94515 1.576249,-4.26623 0.295598,-0.24533 0.601701,-0.23264 0.885511,0.0367 0.248938,0.23625 6.049168,10.51064 6.335006,11.22168 0.09947,0.24744 0.08305,1.54853 -0.09636,7.63485 -0.118944,4.03512 -0.238225,7.42927 -0.265068,7.54254 -0.04749,0.20043 -0.466645,0.48618 -0.713145,0.48618 -0.06736,0 -0.212821,-0.0633 -0.323243,-0.14063 z m 128.925018,0.0477 c -0.11089,-0.0447 -0.24738,-0.16677 -0.30334,-0.27133 -0.11191,-0.20909 -0.58305,-14.95842 -0.48618,-15.22024 0.0464,-0.12538 5.73488,-10.33735 6.1858,-11.10475 0.3013,-0.51274 0.94416,-0.52992 1.26916,-0.0339 0.55465,0.84652 1.40698,3.66154 1.60799,5.31084 0.22913,1.88 0.073,4.74882 -0.36941,6.7853 -0.96305,4.43353 -3.43788,9.57087 -6.65171,13.80783 -0.63172,0.83283 -0.77769,0.91749 -1.25231,0.72626 z"
         id="path918" /><path
         style="fill:#002d40;stroke-width:0.092284"
         d="m 100.95725,278.32907 c -0.88823,-0.83365 -12.845706,-12.03345 -26.572163,-24.88842 l -24.957193,-23.37267 -3.477418,-21.11233 -3.477417,-21.11232 -0.443763,-0.71286 c -1.783775,-2.86541 -4.072791,-7.01164 -5.539227,-10.03353 -3.374403,-6.95364 -5.281081,-12.62928 -5.903716,-17.5737 -0.212719,-1.68922 -0.146608,-4.73997 0.129126,-5.95873 0.484713,-2.14246 1.202163,-3.5444 2.495221,-4.87583 1.090932,-1.1233 2.506252,-1.97209 4.199786,-2.51866 l 0.821341,-0.26509 -0.0607,-2.02326 c -0.03339,-1.1128 -0.07077,-2.03188 -0.08307,-2.04242 -0.0123,-0.0105 -0.496777,0.0582 -1.076613,0.15274 -2.979812,0.48588 -5.732857,0.37098 -7.035576,-0.29362 -2.105645,-1.07421 -1.941619,-3.52354 0.48175,-7.19374 2.861757,-4.33414 7.31406,-8.94228 12.263967,-12.6932 12.50076,-9.47278 29.154091,-15.28665 48.730414,-17.01235 5.102639,-0.44981 8.026599,-0.55999 14.857731,-0.55988 6.57424,9e-5 9.69472,0.11092 14.3963,0.51125 13.80658,1.1756 26.26769,4.39168 36.77519,9.49127 10.59883,5.14392 19.49317,12.4335 24.61503,20.17385 2.85843,4.31978 2.68278,6.86147 -0.52887,7.65248 -1.44885,0.35685 -4.56515,0.25214 -6.89826,-0.23178 l -0.25378,-0.0526 v 1.79362 1.79362 l 0.94591,0.0532 c 1.18723,0.0668 1.83328,0.23528 2.88387,0.75218 2.14026,1.05304 3.43484,3.11948 3.93485,6.28086 0.16326,1.03223 0.13668,3.89004 -0.0497,5.34154 -0.72312,5.63205 -3.162,12.92078 -7.23149,21.61168 -0.45318,0.96783 -1.60293,3.29339 -2.555,5.16791 l -1.73105,3.40823 -3.33582,21.18912 -3.33583,21.18913 -24.54755,22.91468 c -13.50115,12.60308 -25.42813,23.73844 -26.50438,24.74526 l -1.95682,1.83056 -4.18007,-0.005 -4.18006,-0.005 -1.61497,-1.51575 z m 2.86844,-40.18624 c 2.30307,-4.25569 2.48989,-4.56984 2.73186,-4.59416 0.25351,-0.0255 0.3195,0.0846 2.75141,4.59057 l 2.49166,4.61666 4.38308,-0.0225 4.38309,-0.0225 4.50385,-6.22917 c 2.47713,-3.42605 4.90974,-6.79099 5.40582,-7.47766 l 0.90195,-1.24849 -1.68441,-3.43512 -1.68442,-3.43512 -21.43952,0.0233 -21.439519,0.0233 -1.686368,3.40908 -1.686368,3.40908 0.209824,0.29281 c 0.115403,0.16104 2.556145,3.538 5.423871,7.50433 l 5.214047,7.21153 4.374009,-0.0239 4.374014,-0.0239 z M 77.511771,219.21055 c 2.894195,-5.3497 2.902801,-5.36415 3.368367,-5.65648 0.256717,-0.16118 3.861657,-2.30417 8.010977,-4.76217 4.149321,-2.458 7.544219,-4.49488 7.544219,-4.52638 0,-0.0315 -1.671494,-1.02532 -3.714432,-2.20847 -2.042937,-1.18317 -3.828633,-2.23002 -3.968213,-2.32636 -0.172384,-0.11897 -0.253781,-0.25617 -0.253781,-0.42777 0,-0.13893 1.331493,-7.24774 2.958872,-15.79735 2.13806,-11.23252 2.94379,-15.6431 2.904503,-15.89929 -0.06445,-0.42022 -0.330787,-0.97055 -0.570294,-1.17837 -0.09422,-0.0818 -2.476111,-1.61555 -5.293081,-3.40843 -2.81697,-1.79288 -8.257113,-5.25783 -12.089207,-7.6999 -3.832094,-2.44207 -9.865304,-6.28613 -13.407135,-8.54236 -4.337134,-2.76285 -6.454354,-4.16249 -6.484602,-4.28679 -0.108456,-0.44571 -0.380485,-2.77203 -0.341555,-2.9209 0.02366,-0.0905 0.11842,-0.18844 0.210577,-0.21768 0.200104,-0.0635 41.070416,13.2147 41.774664,13.57202 1.254961,0.63675 2.16288,2.37212 2.02503,3.87058 -0.028,0.30454 -1.525756,8.9531 -3.32831,19.21904 -1.802554,10.26592 -3.2571,18.71814 -3.232326,18.78271 0.05082,0.13242 12.718016,7.75601 12.957786,7.79846 0.13829,0.0245 12.46069,-7.28276 12.8533,-7.62207 0.0888,-0.0768 0.16149,-0.25787 0.16149,-0.40245 0,-0.14458 -1.47423,-8.66293 -3.27608,-18.92966 -1.80184,-10.26673 -3.27608,-18.89565 -3.27608,-19.17537 0,-1.45133 0.85865,-2.94991 2.03025,-3.54337 0.2284,-0.11569 1.70264,-0.62788 3.27608,-1.1382 3.31412,-1.07488 6.06886,-1.97027 8.99769,-2.92459 4.423,-1.44118 10.2478,-3.33853 15.73443,-5.12526 3.14688,-1.02479 7.48388,-2.43745 9.63778,-3.13922 4.08973,-1.33251 4.25096,-1.36626 4.25096,-0.88976 0,0.35016 -0.70378,2.83716 -0.84036,2.96964 -0.0707,0.0686 -4.30216,2.81825 -9.40316,6.11031 -5.101,3.29206 -13.35809,8.62122 -18.34908,11.84259 -5.554,3.58474 -9.15032,5.96209 -9.26989,6.12784 -0.41181,0.57089 -0.45474,0.30248 2.69506,16.84939 1.62817,8.55326 2.96031,15.64361 2.96031,15.75634 0,0.25 0.20702,0.11857 -4.24507,2.69516 -1.95411,1.13091 -3.60658,2.10636 -3.67217,2.16766 -0.0949,0.0887 1.47083,1.06543 7.66587,4.78218 l 7.78511,4.67075 2.84037,5.30639 c 1.5622,2.91853 2.88826,5.37102 2.94679,5.44998 0.0889,0.11991 2.25062,-2.41896 13.11751,-15.40602 l 13.01109,-15.54958 3.43287,-26.04355 c 1.88807,-14.32395 3.45217,-26.11738 3.47577,-26.20762 0.0326,-0.12474 -0.0379,-0.18683 -0.29426,-0.25897 -0.18542,-0.0522 -0.85281,-0.24057 -1.48306,-0.41863 -4.63319,-1.30896 -12.90657,-3.27368 -18.4183,-4.37387 -14.22276,-2.83901 -27.78461,-4.39818 -41.7344,-4.79812 -7.34864,-0.21069 -19.216935,0.53163 -29.508866,1.84565 -11.593025,1.48014 -24.714771,4.10169 -35.575492,7.10751 -0.93899,0.25987 -1.886331,0.51365 -2.105204,0.56395 -0.330152,0.0759 -0.373734,0.10962 -0.255812,0.19811 0.111574,0.0837 0.882433,5.71813 3.585043,26.20399 l 3.442907,26.09736 12.870326,15.58708 c 7.07868,8.5729 12.89109,15.58858 12.916468,15.59039 0.02538,0.002 1.351866,-2.41021 2.947751,-5.36007 z m -35.15163,-40.26961 c 0.149013,-0.0771 0.292896,-0.23279 0.319739,-0.34607 0.02684,-0.11327 0.146124,-3.50742 0.265068,-7.54254 0.179407,-6.08632 0.195828,-7.38741 0.09636,-7.63485 -0.285838,-0.71104 -6.086068,-10.98543 -6.335006,-11.22168 -0.28381,-0.26936 -0.589913,-0.28205 -0.885511,-0.0367 -0.38689,0.32108 -1.254637,2.66971 -1.576249,4.26623 -0.800945,3.97602 -0.178693,8.44192 1.850372,13.28011 1.115212,2.65917 2.758984,5.53314 4.661786,8.15067 0.911512,1.25389 1.069658,1.36088 1.603446,1.08485 z m 128.776329,0.0823 c 0.19618,-0.0753 1.00497,-1.14594 2.06838,-2.73807 3.10387,-4.64713 5.05724,-9.46466 5.60027,-13.8117 0.15441,-1.23609 0.17318,-3.68587 0.0368,-4.8047 -0.20101,-1.6493 -1.05334,-4.46432 -1.60799,-5.31084 -0.325,-0.49601 -0.96786,-0.47883 -1.26916,0.0339 -0.45092,0.7674 -6.13941,10.97937 -6.1858,11.10475 -0.0969,0.26182 0.37427,15.01115 0.48618,15.22024 0.15085,0.28188 0.56014,0.42582 0.8713,0.30641 z M 48.504439,102.64679 C 48.387765,82.071266 48.391456,80.869092 48.574629,79.783423 49.063223,76.887556 50.077995,74.462148 52.455032,70.508877 60.331847,57.408873 71.59543,48.07045 84.84739,43.652986 c 1.587893,-0.529315 3.7438,-1.156908 3.7438,-1.089835 0,0.02243 -0.28463,0.380922 -0.632514,0.796641 -2.581711,3.085135 -6.350469,8.622405 -9.056614,13.30648 -8.833887,15.290603 -14.297425,31.874237 -15.885726,48.218408 -0.11098,1.14202 -0.247078,2.12172 -0.30244,2.17712 -0.09431,0.0944 -13.970296,6.12844 -14.093017,6.12844 -0.03116,0 -0.08356,-4.74455 -0.116442,-10.54345 z m 108.192361,7.49673 c -3.83209,-1.66777 -6.99826,-3.04533 -7.03593,-3.06124 -0.0377,-0.0159 -0.13148,-0.69337 -0.20845,-1.50547 C 148.38121,94.274954 145.61919,83.176153 141.15037,72.216132 136.96771,61.957964 130.81466,51.295591 124.65855,43.63815 l -0.90321,-1.123482 0.85166,0.230809 c 2.39793,0.649869 5.6617,1.825999 8.1421,2.934091 11.50807,5.1411 21.53139,14.602512 28.25923,26.67499 1.32075,2.369965 2.00092,3.921272 2.41665,5.511802 0.5446,2.083573 0.51815,1.124787 0.49204,17.836059 -0.0229,14.641411 -0.0543,17.497201 -0.19266,17.480621 -0.0331,-0.004 -3.19546,-1.37175 -7.02756,-3.03952 z m -90.253774,-4.04433 c 0,-0.0535 0.126187,-1.02344 0.280414,-2.15548 1.682304,-12.348264 4.942718,-24.081282 9.778232,-35.188229 1.016585,-2.33505 3.812293,-7.998013 4.988715,-10.105102 3.126006,-5.59899 7.530349,-12.128586 9.243745,-13.70418 1.156822,-1.063783 2.669386,-1.850827 4.284909,-2.229598 0.681043,-0.159677 1.356088,-0.169786 11.336829,-0.169786 10.59493,0 10.61397,3.69e-4 11.39707,0.200694 1.63608,0.418595 3.03843,1.175996 4.23008,2.28464 0.77439,0.720455 2.68064,3.275604 4.58308,6.143223 8.57318,12.922649 14.74705,28.271379 18.00335,44.757757 0.62403,3.159408 1.69064,10.098341 1.5707,10.218291 -0.0198,0.0198 -0.19173,-0.029 -0.38199,-0.10849 -0.19026,-0.0795 -1.03569,-0.35077 -1.87872,-0.60284 -13.18629,-3.94265 -30.30239,-5.784739 -45.459999,-4.89254 -8.444692,0.49707 -16.22348,1.58123 -23.624711,3.29269 -2.942492,0.68042 -6.810009,1.76456 -8.206435,2.30042 -0.0799,0.0307 -0.145269,0.012 -0.145269,-0.0415 z M 93.297677,39.178447 c -0.274411,-0.274411 -0.228124,-0.515425 0.219288,-1.141831 1.435137,-2.009287 3.990208,-3.958355 6.471304,-4.936461 1.053131,-0.415171 2.301271,-0.766229 3.506791,-0.986343 1.13606,-0.207429 4.29769,-0.284177 5.57305,-0.135284 4.23025,0.493859 7.79881,2.589383 9.93724,5.835319 0.51589,0.783072 0.58999,1.09103 0.32604,1.354987 l -0.19419,0.194181 h -12.82747 c -12.704439,0 -12.829254,-0.0018 -13.012053,-0.184568 z"
         id="path916" /></g></g></svg>
