<?xml version="1.0" encoding="UTF-8" standalone="no"?>
<!-- Created with Inkscape (http://www.inkscape.org/) -->

<svg
   width="28.04228mm"
   height="28.133787mm"
   viewBox="0 0 28.04228 28.133787"
   version="1.1"
   id="svg5"
   xml:space="preserve"
   inkscape:version="1.2.1 (9c6d41e410, 2022-07-14)"
   sodipodi:docname="logo4github.svg"
   xmlns:inkscape="http://www.inkscape.org/namespaces/inkscape"
   xmlns:sodipodi="http://sodipodi.sourceforge.net/DTD/sodipodi-0.dtd"
   xmlns="http://www.w3.org/2000/svg"
   xmlns:svg="http://www.w3.org/2000/svg"><sodipodi:namedview
     id="namedview7"
     pagecolor="#ffffff"
     bordercolor="#666666"
     borderopacity="1.0"
     inkscape:showpageshadow="2"
     inkscape:pageopacity="0.0"
     inkscape:pagecheckerboard="0"
     inkscape:deskcolor="#d1d1d1"
     inkscape:document-units="mm"
     showgrid="false"
     inkscape:zoom="0.84096521"
     inkscape:cx="-123.66742"
     inkscape:cy="566.01628"
     inkscape:window-width="2516"
     inkscape:window-height="1330"
     inkscape:window-x="26"
     inkscape:window-y="23"
     inkscape:window-maximized="0"
     inkscape:current-layer="layer1"><inkscape:page
       x="0"
       y="0"
       width="28.04228"
       height="28.133787"
       id="page3389" /><inkscape:page
       x="-58.339725"
       y="35.704853"
       width="27.596581"
       height="27.801254"
       id="page3391"
       inkscape:export-filename="logo4github.png"
       inkscape:export-xdpi="184.08076"
       inkscape:export-ydpi="184.08076" /></sodipodi:namedview><defs
     id="defs2"><style
       id="style2327">.cls-1{fill:#112f41;}</style><filter
       style="color-interpolation-filters:sRGB"
       inkscape:label="Drop Shadow"
       id="filter3165"
       x="-0.044742781"
       y="-0.044474262"
       width="1.0892005"
       height="1.0908216"><feFlood
         flood-opacity="1"
         flood-color="rgb(255,255,255)"
         result="flood"
         id="feFlood3155" /><feComposite
         in="flood"
         in2="SourceGraphic"
         operator="in"
         result="composite1"
         id="feComposite3157" /><feGaussianBlur
         in="composite1"
         stdDeviation="4.7439236111111107"
         result="blur"
         id="feGaussianBlur3159" /><feOffset
         dx="-0.073014"
         dy="0.47951"
         result="offset"
         id="feOffset3161" /><feComposite
         in="SourceGraphic"
         in2="offset"
         operator="over"
         result="composite2"
         id="feComposite3163" /></filter><filter
       y="-0.046874978"
       height="1.09375"
       inkscape:menu-tooltip="Darkens the edge with an inner blur and adds a flexible glow"
       inkscape:menu="Shadows and Glows"
       inkscape:label="Dark and Glow"
       style="color-interpolation-filters:sRGB"
       id="filter3177"
       x="-0.046857495"
       width="1.093715"><feGaussianBlur
         stdDeviation="5"
         result="result6"
         id="feGaussianBlur3167" /><feComposite
         result="result8"
         in="SourceGraphic"
         operator="atop"
         in2="result6"
         id="feComposite3169" /><feComposite
         result="result9"
         operator="over"
         in2="SourceAlpha"
         in="result8"
         id="feComposite3171" /><feColorMatrix
         values="1 0 0 0 0 0 1 0 0 0 0 0 1 0 0 0 0 0 1 0"
         result="result10"
         id="feColorMatrix3173" /><feBlend
         in="result10"
         mode="normal"
         in2="result6"
         id="feBlend3175" /></filter><filter
       inkscape:label="In and Out"
       inkscape:menu="Shadows and Glows"
       inkscape:menu-tooltip="Inner colorized shadow, outer black shadow"
       style="color-interpolation-filters:sRGB"
       id="filter3185"
       x="-0.037485994"
       y="-0.037499979"
       width="1.0944959"
       height="1.0945312"><feGaussianBlur
         result="result0"
         in="SourceAlpha"
         stdDeviation="4"
         id="feGaussianBlur3179" /><feOffset
         dx="5"
         dy="5"
         result="result4"
         id="feOffset3181" /><feComposite
         in="SourceGraphic"
         in2="result4"
         operator="xor"
         result="result3"
         id="feComposite3183" /></filter><filter
       inkscape:menu-tooltip="In and out glow with a possible offset and colorizable flood"
       inkscape:menu="Shadows and Glows"
       inkscape:label="Cutout Glow"
       style="color-interpolation-filters:sRGB"
       id="filter3197"
       x="-0.028114498"
       y="-0.028124986"
       width="1.0679435"
       height="1.0679687"><feOffset
         dy="3"
         dx="3"
         id="feOffset3187" /><feGaussianBlur
         stdDeviation="3"
         result="blur"
         id="feGaussianBlur3189" /><feFlood
         flood-color="rgb(255,255,255)"
         flood-opacity="1"
         result="flood"
         id="feFlood3191" /><feComposite
         in="flood"
         in2="SourceGraphic"
         operator="in"
         result="composite"
         id="feComposite3193" /><feBlend
         in="blur"
         in2="composite"
         mode="normal"
         id="feBlend3195" /></filter></defs><g
     inkscape:label="Laag 1"
     inkscape:groupmode="layer"
     id="layer1"
     transform="translate(-34.742812,-135.77311)"><rect
       style="display:inline;fill:#26292f;fill-opacity:1;stroke-width:2.04961;stroke-opacity:0.784794"
       id="rect373"
       width="27.80558"
       height="27.80558"
       x="35.069038"
       y="136.03555"
       ry="1.7120438" /><g
       id="g2386"
       transform="matrix(0.09502855,0,0,0.09502855,33.940251,134.65317)"
       style="filter:url(#filter3165)"><path
         class="cls-1"
         d="m 197.9,37.73 v 6.19 a 17.55,17.55 0 0 1 -17.5,17.5 v 0 A 17.55,17.55 0 0 1 162.9,43.92 V 32.08 c -1,0 -2,-0.08 -3,-0.08 a 127.82,127.82 0 0 0 -127,143.7 17.47,17.47 0 0 1 22.43,16.78 v 23.84 A 17.38,17.38 0 0 1 51.2,227.56 127.9,127.9 0 0 0 159.93,288 c 3.37,0 6.7,-0.17 10,-0.43 v -14.8 a 17.51,17.51 0 0 1 35,0 v 7.07 a 128,128 0 0 0 -7,-242.11 z m 45,173.28 v 0 a 15.17,15.17 0 0 1 -12.76,-7 A 82.34,82.34 0 0 1 78.18,160 16.42,16.42 0 0 1 61.81,143.63 v -22.29 a 16.36,16.36 0 0 1 30.74,-7.82 82.35,82.35 0 0 1 150.33,46.48 15.22,15.22 0 0 1 15.17,15.18 v 20.66 A 15.22,15.22 0 0 1 242.88,211 Z"
         id="path2331" /><polygon
         class="cls-1"
         points=""
         id="polygon2333" /><polygon
         class="cls-1"
         points="186.39,202.08 186.39,202.07 "
         id="polygon2335" /><polygon
         class="cls-1"
         points="122.17,158.67 122.18,158.68 122.18,158.67 "
         id="polygon2337" /><polygon
         class="cls-1"
         points="133.47,202.07 133.47,202.08 "
         id="polygon2339" /><path
         class="cls-1"
         d="m 202.72,112 v 25.58 H 188 l -0.79,-10.74 h -17.72 v 67.64 l 10.29,2 V 208 H 140 v -11.54 l 10.29,-2 v -67.62 h -17.66 l -0.79,10.74 h -14.7 V 112 Z"
         id="path2363" /></g><g
       id="g3243"
       transform="matrix(0.09502855,0,0,0.09502855,-24.999157,170.17403)"
       style="filter:url(#filter3165)"><path
         class="cls-1"
         d="m 197.9,37.73 v 6.19 a 17.55,17.55 0 0 1 -17.5,17.5 v 0 A 17.55,17.55 0 0 1 162.9,43.92 V 32.08 c -1,0 -2,-0.08 -3,-0.08 a 127.82,127.82 0 0 0 -127,143.7 17.47,17.47 0 0 1 22.43,16.78 v 23.84 A 17.38,17.38 0 0 1 51.2,227.56 127.9,127.9 0 0 0 159.93,288 c 3.37,0 6.7,-0.17 10,-0.43 v -14.8 a 17.51,17.51 0 0 1 35,0 v 7.07 a 128,128 0 0 0 -7,-242.11 z m 45,173.28 v 0 a 15.17,15.17 0 0 1 -12.76,-7 A 82.34,82.34 0 0 1 78.18,160 16.42,16.42 0 0 1 61.81,143.63 v -22.29 a 16.36,16.36 0 0 1 30.74,-7.82 82.35,82.35 0 0 1 150.33,46.48 15.22,15.22 0 0 1 15.17,15.18 v 20.66 A 15.22,15.22 0 0 1 242.88,211 Z"
         id="path3231" /><polygon
         class="cls-1"
         points=""
         id="polygon3233" /><polygon
         class="cls-1"
         points="186.39,202.08 186.39,202.07 "
         id="polygon3235" /><polygon
         class="cls-1"
         points="122.18,158.67 122.17,158.67 122.18,158.68 "
         id="polygon3237" /><polygon
         class="cls-1"
         points="133.47,202.07 133.47,202.08 "
         id="polygon3239" /><path
         class="cls-1"
         d="m 202.72,112 v 25.58 H 188 l -0.79,-10.74 h -17.72 v 67.64 l 10.29,2 V 208 H 140 v -11.54 l 10.29,-2 v -67.62 h -17.66 l -0.79,10.74 h -14.7 V 112 Z"
         id="path3241" /></g><text
       xml:space="preserve"
       style="font-size:5.98692px;line-height:1.25;font-family:sans-serif;letter-spacing:0px;stroke-width:0.149673"
       x="-24.935928"
       y="204.96147"
       id="text3548"><tspan
         sodipodi:role="line"
         id="tspan3546"
         style="stroke-width:0.149673"
         x="-24.935928"
         y="204.96147">voor export</tspan></text><text
       xml:space="preserve"
       style="font-size:5.98692px;line-height:1.25;font-family:sans-serif;letter-spacing:0px;stroke-width:0.149673"
       x="21.190475"
       y="172.0108"
       id="text3552"><tspan
         sodipodi:role="line"
         id="tspan3550"
         style="stroke-width:0.149673"
         x="21.190475"
         y="172.0108">github dark mode</tspan></text></g></svg>
